<?xml version="1.0" encoding="utf-8"?>
<!-- Generator: Adobe Illustrator 21.0.0, SVG Export Plug-In . SVG Version: 6.00 Build 0)  -->
<svg version="1.1" id="Layer_1" xmlns="http://www.w3.org/2000/svg" xmlns:xlink="http://www.w3.org/1999/xlink" x="0px" y="0px"
	 width="199.1px" height="149.6px" viewBox="0 0 199.1 149.6" style="enable-background:new 0 0 199.1 149.6;" xml:space="preserve"
	>
<style type="text/css">
	.st0{fill:#FFFFFF;}
	.st1{fill:#0D122E;}
</style>
<path class="st0" d="M199.1,40.9c-0.1-2.7-0.2-5.4-0.4-8.1c-0.2-2.6-0.8-5-2-7.3c-1.1-2.1-2.6-3.8-4.9-4.6c-2.3-0.8-4.6-0.5-6.8,0.4
	c-3,1.2-5.4,3.1-7.7,5.3c-4.8,4.6-9.9,8.6-15.7,11.9c-9.2,5.2-19,7.9-29.6,7.6c-4-0.1-8-0.6-11.9-1.5c-7.8-1.7-15.2-4.7-22.3-8.4
	c-5-2.6-9.8-5.6-14.6-8.6C73,21.2,62.6,14.8,52,8.9C47.1,6.1,42.1,3.7,36.7,2c-4.6-1.5-9.2-2.3-14.1-1.8c-4,0.5-7.6,2-10.6,4.7
	c-2.9,2.6-5,5.9-6.6,9.4c-3,6.9-4.3,14.2-5.1,21.6c-0.4,4-0.4,8-0.4,12c0.1,3,0.2,6,0.3,9c0.4,6,1.2,12,2.4,17.9
	c1.7,8.2,4.3,16.1,8,23.7c7.5,15.3,18.5,27.6,32.6,37.1c13.7,9.2,28.9,13.5,45.3,14c4.2,0.1,8.3,0,12.4-0.4
	c5.4-0.5,10.8-1.4,16.1-2.7c11.7-2.8,22.9-7.5,33.2-13.8c10.4-6.3,19.7-14.1,27.5-23.5c7.9-9.5,13.7-20.2,17.1-32.1
	c2.9-10.2,4-20.6,4.1-31.2C199.1,44.2,199.2,42.5,199.1,40.9L199.1,40.9z"/>
<g>
	<path class="st1" d="M161.1,91.4c-1.6,1.3-3.4,2-5.8,2c-2.9-0.1-5.3-1.7-7-4.4c-2.3-3.8-1.9-9,1.1-12.3c3.2-3.7,8.5-4,12.2-0.7
		C165.9,80,165.7,87.5,161.1,91.4L161.1,91.4z M169.1,83.4c0-1.3-0.2-2.5-0.5-3.8c-2.2-8.7-11.9-12.8-19.5-8.3
		c-4,2.4-6.2,6.1-6.6,10.7c-0.5,5.1,1.2,9.5,5.3,12.7c5,3.9,11.8,3.5,16.1-0.8c0.3-0.3,0.6-0.7,1.1-1.2v4h4.3c0-0.2,0-0.4,0-0.6
		C169.1,91.9,169.1,87.7,169.1,83.4L169.1,83.4z"/>
	<path class="st1" d="M143.8,71.3c-0.9,1.2-1.7,2.3-2.6,3.4c-1.4-0.9-2.9-1.2-4.5-1c-3.4,0.2-5.9,2.8-6,6.2c-0.1,4.1,0,8.1-0.1,12.2
		c0,1.3,0,2.6,0,3.9v0.8h-4.4V96c0-5.2,0-10.4,0-15.6c0-6.1,4.4-10.7,10.6-10.8c2.2-0.1,4.4,0.3,6.3,1.4
		C143.4,71.1,143.6,71.2,143.8,71.3L143.8,71.3z"/>
	<path class="st1" d="M123.2,86.3c0,5.5-3.2,9.7-8.3,10.8c-4.4,1-8.4,0.1-11.5-3.5c-1.6-1.9-2.4-4.2-2.4-6.6c-0.1-5.5,0-10.9,0-16.4
		c0-0.1,0-0.2,0-0.3h4.3v0.8c0,5.1,0,10.3,0,15.4c0,3.2,1.9,5.7,4.9,6.5c4.6,1.1,8.4-1.9,8.4-6.6c0-5.1,0-10.1,0-15.2v-0.9h4.5V71
		C123.2,76,123.2,81.2,123.2,86.3L123.2,86.3z"/>
	<path class="st1" d="M101.4,96.4c-1,0.3-1.9,0.6-2.9,0.8c-3.8,0.6-7.2-0.1-10.1-2.7c-2.4-2.2-3.5-5.1-3.5-8.3c0-7,0-14,0-21
		c0-0.2,0-0.4,0-0.6h4.4v5.7h6.2v4.2h-6.2c0,0.2,0,0.4,0,0.5c0,3.8,0,7.5,0,11.3c0,3.4,2,6,5.1,6.7c1.5,0.4,3,0.2,4.4-0.3
		C99.7,93.9,100.5,95.1,101.4,96.4z"/>
	<path class="st1" d="M75.3,90.4c-3.9,4.4-10.6,3.8-13.8-1.3c-1-1.7-1.6-3.5-1.6-6.5c0-1.9,0.9-4.4,2.9-6.4
		c3.7-3.7,9.2-3.4,12.6,0.6C78.6,80.7,78.5,86.7,75.3,90.4L75.3,90.4z M81.7,79.7c-1.6-6.5-7.5-10.9-14.4-10.1
		c-6.8,0.8-11.8,6.6-11.8,13.5c0,8.2,0,16.5,0,24.7v0.7h4.3V93.1c0.2,0.2,0.3,0.3,0.4,0.3c4.7,5.2,12.1,5.1,16.9,1.2
		C81.8,90.8,83.1,85.6,81.7,79.7z"/>
	<path class="st1" d="M37.7,74.1c5.1-1.6,9.1,2.1,10.2,5.1c-5.6,1.7-11.2,3.4-16.8,5.1C30.6,80.7,32.8,75.7,37.7,74.1L37.7,74.1z
		 M47.5,89.7c-2.2,3-5.2,4-8.8,3.4c-3-0.5-5.2-2.1-6.6-4.8c7.1-2.2,14.1-4.3,21.2-6.5c-0.2-1-0.4-1.9-0.6-2.7
		c-2.3-7.8-10.6-11.7-17.8-8.5c-6.1,2.7-9.5,9.7-7.8,16.5c2.7,10.8,15.1,12.8,21.4,7.8c1.7-1.4,3-3,4-5.1c-1.5-0.2-2.9-0.3-4.3-0.4
		C47.8,89.4,47.6,89.6,47.5,89.7z"/>
</g>
<path class="st1" d="M171.9,69.6v0.6h-1.1v3.2h-0.6v-3.2H169v-0.6H171.9z M176.4,73.4h-0.6v-2.7l-1.1,2.7H174l-1.1-2.7v2.7h-0.6
	v-3.8h0.9l1.2,3.1l1.2-3.1h0.8V73.4z"/>
</svg>
